<?xml version="1.0" encoding="utf-8"?>
<!-- Generator: Adobe Illustrator 22.1.0, SVG Export Plug-In . SVG Version: 6.00 Build 0)  -->
<svg version="1.1" id="Layer_1" xmlns="http://www.w3.org/2000/svg" xmlns:xlink="http://www.w3.org/1999/xlink" x="0px" y="0px"
	 viewBox="0 0 852.7 123.4" style="enable-background:new 0 0 852.7 123.4;" xml:space="preserve">
<style type="text/css">
	.st0{fill:#191A28;}
	.st1{fill:#F05223;}
	.st2{fill:#FFFFFF;}
</style>
<g>
	<path class="st0" d="M303.8,0h48.3l23.2,68.6L398.7,0H447l-47.5,123.4h-48.1L303.8,0z"/>
	<path class="st0" d="M471.4,0h46.4v123.4h-46.4V0z"/>
	<g>
		<polyline class="st0" points="236.1,45.2 259.4,123.4 259.4,123.4 259.4,123.4 307.7,123.4 260.2,0 212.1,0 164.6,123.4 
			212.9,123.4 		"/>
	</g>
	<g>
		<polyline class="st0" points="613.6,45.2 637,123.4 637,123.4 637,123.4 685.3,123.4 637.8,0 589.7,0 542.1,123.4 590.4,123.4 		
			"/>
	</g>
	<rect y="0" class="st0" width="46.4" height="123.4"/>
	<polygon class="st1" points="143.2,123.4 96.8,123.4 54.4,61.7 96.8,0 143.2,0 100.8,61.7 	"/>
	<g>
		<path class="st0" d="M827.1,86c2.8-2.9,5.3-6,7.5-9.5c4.6-7.2,6.8-15.2,6.8-24.2c0-15.6-4.5-28.3-13.6-37.9
			C818.7,4.8,805.6,0,788.4,0h-78.7v81v13.6v28.8h46.4V94.6V81V67.9V65V36.1H789c8.8,0,15.9,7.1,15.9,15.9s-7.1,15.9-15.9,15.9
			h-20.9l18.3,26.7h0l19.8,28.8h46.5L827.1,86z"/>
	</g>
</g>
</svg>
